<svg width="205" height="205" viewBox="0 0 205 205" fill="none" xmlns="http://www.w3.org/2000/svg">
<rect width="205" height="205" rx="15" fill="black"/>
<path d="M22.455 148.35V61.065H58.45V71.53H34.76V138H58.45V148.35H22.455ZM95.365 138V77.28H76.045V66.355H128.14V77.28H107.785V138H95.365ZM187.48 148.35H151.485V138H175.175V71.53H151.485V61.065H187.48V148.35Z" fill="white"/>
<path d="M22.455 148.35V61.065H58.45V71.53H34.76V138H58.45V148.35H22.455ZM95.365 138V77.28H76.045V66.355H128.14V77.28H107.785V138H95.365ZM187.48 148.35H151.485V138H175.175V71.53H151.485V61.065H187.48V148.35Z" fill="black" fill-opacity="0.2"/>
</svg>
