<svg width="205" height="205" viewBox="0 0 205 205" fill="none" xmlns="http://www.w3.org/2000/svg">
<rect width="205" height="205" rx="15" fill="white"/>
<path d="M22.455 151.35V64.065H58.45V74.53H34.76V141H58.45V151.35H22.455ZM95.365 141V80.28H76.045V69.355H128.14V80.28H107.785V141H95.365ZM187.48 151.35H151.485V141H175.175V74.53H151.485V64.065H187.48V151.35Z" fill="black"/>
<path d="M22.455 151.35V64.065H58.45V74.53H34.76V141H58.45V151.35H22.455ZM95.365 141V80.28H76.045V69.355H128.14V80.28H107.785V141H95.365ZM187.48 151.35H151.485V141H175.175V74.53H151.485V64.065H187.48V151.35Z" fill="black" fill-opacity="0.2"/>
</svg>
